<svg xmlns="http://www.w3.org/2000/svg" viewBox="0 0 100 100">
  <defs>
    <linearGradient id="feishuGrad" x1="0%" y1="0%" x2="100%" y2="100%">
      <stop offset="0%" stop-color="#00B578"/>
      <stop offset="100%" stop-color="#0088FF"/>
    </linearGradient>
  </defs>
  <path d="M50 15c-20 0-35 15-35 35s15 35 35 35c8 0 15-3 20-8l15-15c5-5 8-12 8-20s-3-15-8-20l-15-15c-5-5-12-8-20-8z" fill="#fff"/>
  <path d="M50 20c18 0 30 12 30 28s-12 28-30 28c-6 0-12-2-16-6l-12-12c-4-4-6-10-6-16s2-12 6-16l12-12c4-4 10-6 16-6z" fill="url(#feishuGrad)"/>
  <path d="M50 25c14 0 24 10 24 24s-10 24-24 24c-5 0-9-2-12-5l-8-8c-3-3-5-7-5-11s2-8 5-11l8-8c3-3 7-5 12-5z" fill="#fff" opacity="0.3"/>
</svg>